<svg xmlns="http://www.w3.org/2000/svg" width="401" height="129" viewBox="0 0 401 129">
  <g fill="none" fill-rule="evenodd">
    <rect width="401" height="129"/>
    <g fill-rule="nonzero" transform="translate(38 37)">
      <path fill="#FFF" d="M116.361367,13.8895036 C119.702608,13.8629419 122.994184,14.6975819 125.917758,16.3127039 C128.74784,17.8366597 131.109183,20.1007339 132.748706,22.8622682 L126.271442,26.6147669 C125.339865,24.9232245 123.941385,23.5342818 122.242223,22.6130247 C120.436955,21.6403626 118.412565,21.1446408 116.361367,21.1729514 C112.662715,21.1729514 109.676053,22.3268563 107.401383,24.6346661 C105.126712,26.9424759 103.991688,29.9426287 103.996311,33.6351244 C103.861343,36.9722022 105.090358,40.2207998 107.401383,42.6355827 C109.67143,44.9433925 112.658092,46.0972974 116.361367,46.0972974 C118.421582,46.127269 120.455346,45.6315895 122.269963,44.6572241 C123.963625,43.7666085 125.355783,42.3960379 126.271442,40.7177927 L132.748706,44.4702915 C131.126622,47.2410613 128.782756,49.5212108 125.966303,51.0683197 C123.026409,52.6843182 119.717172,53.5120396 116.361367,53.4707498 C110.628456,53.4707498 105.889558,51.5668067 102.144674,47.7589205 C98.4338451,44.0220231 96.4080333,38.9371751 96.5342813,33.676665 C96.3974597,28.4081412 98.424434,23.3128703 102.144674,19.5736392 C105.880312,15.7888311 110.61921,13.8941192 116.361367,13.8895036 Z M149.032019,24.7731347 C152.846254,24.7731347 155.805176,26.0955097 157.908784,28.7402598 L157.908784,25.5416353 L164.93391,25.5416353 L164.93391,52.7299428 L157.908784,52.7299428 L157.908784,49.5174715 C155.800552,52.1529903 152.841631,53.4707498 149.032019,53.4707498 C145.463681,53.4966081 142.058132,51.9821843 139.690613,49.3166921 C137.102568,46.5592799 135.705081,42.8960485 135.800093,39.1184806 C135.706165,35.3431605 137.103628,31.6824798 139.690613,28.9271924 C142.057582,26.2609507 145.463491,24.746367 149.032019,24.7731347 Z M240.518171,28.9410392 C243.114588,31.7015905 244.51299,35.3746865 244.40869,39.1600211 C244.402978,40.1284074 244.312478,41.0944415 244.138226,42.0470912 L223.631514,42.0193974 C224.583917,45.4257247 227.145233,47.1288884 231.315463,47.1288884 C233.996985,47.1288884 236.028932,46.2219192 237.411303,44.4079806 L243.077176,47.6689159 C240.386406,51.5368051 236.428849,53.4707498 231.204503,53.4707498 C226.701394,53.4707498 223.088274,52.1114498 220.365142,49.3928498 C217.644204,46.6730728 216.166575,42.9538403 216.280444,39.1115571 C216.172842,35.302713 217.616635,31.6130513 220.281922,28.8856518 C222.972692,26.1485894 226.421684,24.7824098 230.628901,24.7869815 C234.370222,24.6879618 237.973217,26.2014254 240.518171,28.9410392 Z M300.311499,14.6995449 L313.75841,52.7784068 L306.136876,52.7299428 L303.716571,45.8549774 L288.057404,45.8549774 L285.768863,52.7091725 L277.654946,52.7091725 L291.018637,14.6995449 L300.311499,14.6995449 Z M325,14.6995449 L325,52.7784068 L317.461685,52.7784068 L317.461685,14.6995449 L325,14.6995449 Z M208.908568,27.8540608 C210.757894,29.8895491 211.682557,32.608149 211.682557,36.0098607 L211.682557,52.7299428 L204.68517,52.7299428 L204.68517,36.4737305 C204.769238,35.1001692 204.34196,33.7440343 203.48542,32.6658443 C202.625603,31.7205837 201.38519,31.2120217 200.108089,31.2811584 C198.687442,31.206562 197.311431,31.7887337 196.377074,32.8597003 C195.489397,33.9028303 195.045559,35.423677 195.045559,37.4222403 L195.045559,52.7299428 L188.020433,52.7299428 L188.020433,36.4737305 C188.104499,35.1001692 187.677222,33.7440343 186.820682,32.6658443 C185.963015,31.7216891 184.725181,31.2131401 183.450286,31.2811584 C182.031655,31.2178689 180.660364,31.7980433 179.719271,32.8597003 C178.794608,33.9028303 178.332276,35.423677 178.332276,37.4222403 L178.332276,52.7299428 L171.30715,52.7299428 L171.30715,25.5416353 L178.325342,25.5416353 L178.325342,28.4287055 C179.961995,26.0008895 182.486325,24.7869815 185.898331,24.7869815 C189.231741,24.7869815 191.700591,26.0908941 193.304881,28.6987192 C195.107974,26.0908941 197.812613,24.7869815 201.418799,24.7869815 C204.243609,24.6719178 206.978352,25.7918016 208.908568,27.8540608 Z M271.850374,27.7709797 C273.792167,29.7649274 274.765374,32.5204522 274.769998,36.0375544 L274.769998,52.7299428 L267.744871,52.7299428 L267.744871,36.9099065 C267.846247,35.3825165 267.314689,33.8806127 266.274657,32.7558489 C265.215487,31.7651253 263.799185,31.2455132 262.349463,31.3157756 C260.725413,31.2405567 259.144647,31.8512049 257.9943,32.9981689 C256.893951,34.1197644 256.343777,35.8021578 256.343777,38.045349 L256.343777,52.7299428 L249.339455,52.7299428 L249.339455,25.5416353 L256.343777,25.5416353 L256.343777,28.5879443 C258.06365,26.0539692 260.775224,24.7869815 264.471564,24.7869815 C267.24176,24.7031075 269.919605,25.7860308 271.850374,27.7709797 Z M150.342729,31.4265504 C148.322458,31.3632668 146.367198,32.1435673 144.947321,33.5797369 C143.508343,35.0568743 142.74099,37.059686 142.825219,39.1184806 C142.745093,41.1766025 143.511848,43.177854 144.947321,44.6572241 C146.369802,46.0887135 148.323936,46.8660571 150.342729,46.8034872 C152.366914,46.8618582 154.325868,46.0855903 155.758942,44.6572241 C157.210888,43.1865393 157.988987,41.1818844 157.908784,39.1184806 C157.993184,37.054379 157.21446,35.0481134 155.758942,33.5797369 C154.328428,32.1467282 152.368376,31.3675201 150.342729,31.4265504 Z M295.734418,23.3192145 L290.505449,38.8830839 L301.233851,38.8830839 L295.734418,23.3192145 Z M225.961665,32.4789117 C224.686809,33.5117631 223.823531,34.9653524 223.527489,36.5775819 L237.397433,36.5775819 C237.128899,34.9298501 236.244078,33.4452317 234.921649,32.4235242 C233.683092,31.5117357 232.181597,31.0258374 230.642771,31.0388383 C228.964036,30.9754993 227.313527,31.4832541 225.961665,32.4789117 Z"/>
      <path fill="#21D995" d="M23.0566712,15.0621078 C17.7840492,20.0579454 14.8009609,26.9955939 14.8062535,34.2497723 C14.7976992,39.5389551 16.3818477,44.7087797 19.3533983,49.0892532 C20.3032891,50.5126107 21.3893697,51.8406795 22.5963774,53.0547966 C22.7428345,53.2008956 22.9102141,53.3330803 23.0566712,53.4722222 L23.0566712,53.4722222 L7.77631174,53.4722222 C5.90294772,53.4685059 4.20098724,52.3836507 3.41049474,50.6893847 L3.41049474,50.6893847 L3.28496006,50.411101 C-1.09498669,40.0895004 -1.09498669,28.4378726 3.28496006,18.116272 L3.28496006,18.116272 L3.41049474,17.8449453 C4.1996345,16.149499 5.90244231,15.0641037 7.77631174,15.0621078 L7.77631174,15.0621078 L23.0566712,15.0621078 Z M75.0280264,15.0551508 C76.9008861,15.0605807 78.6020035,16.1448987 79.3938431,17.8379883 C79.4287139,17.9353876 79.4775326,18.0258298 79.5193778,18.116272 C79.7432042,18.6811893 79.859109,19.2828927 79.8611111,19.8903309 L79.8611111,19.8903309 L79.8611111,48.6022566 C79.8595597,49.207482 79.7436236,49.8069888 79.5193778,50.3693584 C79.4775326,50.4667577 79.4287139,50.5571999 79.3868688,50.6476422 C78.6015104,52.3431759 76.9003861,53.4292329 75.0280264,53.4304797 L75.0280264,53.4304797 L67.9980844,53.4304797 L67.9980844,34.2428152 C68.0042203,30.6937401 67.2926131,27.1798985 65.9058399,23.911531 C64.5664716,20.7622106 62.6319942,17.8994773 60.2079605,15.4795335 C60.0615034,15.3334345 59.901098,15.2012497 59.7546408,15.0551508 L59.7546408,15.0551508 L75.0280264,15.0551508 Z M32.2527624,17.4057459 C40.9496437,12.705631 51.802308,15.354318 57.3415855,23.5288909 C58.0375658,24.5438719 58.6309463,25.6251919 59.1130192,26.7569824 C60.1293503,29.1249324 60.6536817,31.6739094 60.654306,34.2497723 L60.654306,34.2497723 L60.654306,53.4305055 L41.4335526,53.4305055 C36.9707742,53.4356658 32.6464038,51.8853572 29.2078702,49.0475106 C28.7057315,48.6579134 28.2454377,48.2404878 27.8130405,47.8091479 C26.9398659,46.9406387 26.1527855,45.9900644 25.4627524,44.9706537 C24.7691994,43.9443893 24.1760011,42.8540825 23.6913187,41.7147339 C19.8524601,32.6211919 23.555881,22.1058608 32.2527624,17.4057459 Z M41.3986819,24.6559401 C36.0871657,24.6559401 31.781331,28.9512451 31.781331,34.2497723 C31.781331,39.5482995 36.0871657,43.8436045 41.3986819,43.8436045 C46.7101981,43.8436045 51.0160327,39.5482995 51.0160327,34.2497723 C51.0160327,28.9512451 46.7101981,24.6559401 41.3986819,24.6559401 Z M72.7962986,0 L72.9640743,0.009253115 C75.4687639,0.190536612 77.4252986,2.27291395 77.4252986,4.79691611 C77.4252986,7.37700722 75.3808403,9.49562764 72.7962986,9.59383222 L72.7962986,9.59383222 L72.5841181,9.5891684 C71.3850271,9.53641972 70.2459049,9.03806403 69.3935859,8.18782917 C68.4911303,7.28758056 67.9841361,6.06658138 67.9841361,4.79343756 C67.9856067,4.15328617 68.1135816,3.5197046 68.3607401,2.92893645 C69.1163017,1.15333485 70.8626208,0.000186535158 72.7962986,0 L72.7962986,0 Z"/>
    </g>
  </g>
</svg>
